<svg id="Layer_1" data-name="Layer 1" xmlns="http://www.w3.org/2000/svg" viewBox="0 0 221.59 50.97"><defs><style>.cls-1{fill:none;stroke:#b8bdbf;stroke-miterlimit:10;stroke-width:2.5px;}.cls-2{fill:#5f387b;}</style></defs><title>Logo-TransparentBG</title><g id="Ring"><ellipse class="cls-1" cx="25.49" cy="25.48" rx="24.24" ry="24.23"/></g><g id="Ring-2" data-name="Ring"><ellipse class="cls-1" cx="37.24" cy="25.48" rx="24.24" ry="24.23"/></g><g id="Heart_Clipping_Path" data-name="Heart Clipping Path"><path class="cls-2" d="M38,18.22a5.16,5.16,0,0,0-6.42,2.06A5.15,5.15,0,0,0,22.44,25c1.11,2.59,9,8.17,9.14,8.26h0c0.13-.09,8-5.67,9.13-8.26A5.14,5.14,0,0,0,38,18.22Z" transform="translate(-0.04 -0.04)"/></g><path class="cls-2" d="M71.78,39V9.07h3.05V20.45a19.07,19.07,0,0,1,3.79-2.57,10.29,10.29,0,0,1,4.71-1,14.47,14.47,0,0,1,4.53.68,7.59,7.59,0,0,1,3.51,2.39,4.84,4.84,0,0,1,1.15,2.39,18,18,0,0,1,.18,2.55V39H89.65v-14a5.64,5.64,0,0,0-1.58-4.36q-1.58-1.45-5.24-1.45a8.79,8.79,0,0,0-4.71,1.29,7.15,7.15,0,0,0-1.6,1.33,5.89,5.89,0,0,0-1,1.58,6.77,6.77,0,0,0-.56,2,20.07,20.07,0,0,0-.1,2.08V39H71.78Z" transform="translate(-0.04 -0.04)"/><path class="cls-2" d="M98.35,12.76V9.07h3.36v3.7H98.35ZM98.5,39V17.46h3.05V39H98.5Z" transform="translate(-0.04 -0.04)"/><path class="cls-2" d="M116.57,39c-0.37.06-.87,0.15-1.48,0.29a9.23,9.23,0,0,1-2,.21,5.56,5.56,0,0,1-3.48-.93,4,4,0,0,1-1.2-3.34V19.53h-3.72V17.46h3.72v-6h3.05v6h4.94v2.08h-4.94V34.27c0,0.53,0,1,.05,1.37a2,2,0,0,0,.31,1,1.42,1.42,0,0,0,.79.54,5.29,5.29,0,0,0,1.5.17,9.42,9.42,0,0,0,1.25-.08c0.42-.05.84-0.12,1.25-0.21v2Z" transform="translate(-0.04 -0.04)"/><path class="cls-2" d="M138.1,24.22a7.18,7.18,0,0,0-2.8-3.76,8.77,8.77,0,0,0-5-1.35,9.41,9.41,0,0,0-4,.79,7.74,7.74,0,0,0-2.75,2.1A8.65,8.65,0,0,0,121.92,25a11.06,11.06,0,0,0-.51,3.3,11.48,11.48,0,0,0,.48,3.32,8.1,8.1,0,0,0,1.55,2.91,7.64,7.64,0,0,0,2.75,2.05,9.73,9.73,0,0,0,4.07.77,8.94,8.94,0,0,0,5.47-1.54,6.81,6.81,0,0,0,2.62-4.23h3.26a11,11,0,0,1-1.3,3.26A9,9,0,0,1,138,37.33,10.5,10.5,0,0,1,134.69,39a17.32,17.32,0,0,1-9.87-.29,10.23,10.23,0,0,1-3.77-2.39,9.46,9.46,0,0,1-2.19-3.59,13.6,13.6,0,0,1-.71-4.44,11.82,11.82,0,0,1,.79-4.3,10.7,10.7,0,0,1,2.31-3.63A11.08,11.08,0,0,1,125,17.81a15.74,15.74,0,0,1,12.62.85,8,8,0,0,1,3.54,5.56H138.1Z" transform="translate(-0.04 -0.04)"/><path class="cls-2" d="M145.69,39V9.07h3.05V20.45a19.11,19.11,0,0,1,3.79-2.57,10.28,10.28,0,0,1,4.71-1,14.48,14.48,0,0,1,4.53.68,7.59,7.59,0,0,1,3.51,2.39,4.85,4.85,0,0,1,1.15,2.39,17.83,17.83,0,0,1,.18,2.55V39h-3.05v-14A5.65,5.65,0,0,0,162,20.57q-1.58-1.45-5.24-1.45A8.8,8.8,0,0,0,152,20.4a7.12,7.12,0,0,0-1.6,1.33,5.76,5.76,0,0,0-1,1.58,6.73,6.73,0,0,0-.56,2,19.79,19.79,0,0,0-.1,2.08V39h-3.05Z" transform="translate(-0.04 -0.04)"/><path class="cls-2" d="M173.84,28.79a9.66,9.66,0,0,0,.56,3.3,7.5,7.5,0,0,0,1.65,2.7,7.9,7.9,0,0,0,2.77,1.83,10.2,10.2,0,0,0,3.87.68A9.78,9.78,0,0,0,187.84,36a6.23,6.23,0,0,0,2.85-3.65h3.41a12.19,12.19,0,0,1-1.47,2.84,9.42,9.42,0,0,1-2.29,2.28A10.65,10.65,0,0,1,187.07,39a16,16,0,0,1-4.38.54,15.29,15.29,0,0,1-5.45-.87,10.27,10.27,0,0,1-3.77-2.39,9.52,9.52,0,0,1-2.19-3.57,13.41,13.41,0,0,1-.71-4.42,11.76,11.76,0,0,1,.84-4.44,10.85,10.85,0,0,1,2.39-3.63,11.06,11.06,0,0,1,3.79-2.45,13.69,13.69,0,0,1,5.09-.89q5.44,0,8.55,3.05t3.05,8.86H173.84ZM191,26.71a8.18,8.18,0,0,0-.54-3,6.66,6.66,0,0,0-1.58-2.41,7.57,7.57,0,0,0-2.62-1.62,10.11,10.11,0,0,0-3.61-.6,9.56,9.56,0,0,0-3.59.62,8.08,8.08,0,0,0-4.41,4.07,9.6,9.6,0,0,0-.87,2.91H191Z" transform="translate(-0.04 -0.04)"/><path class="cls-2" d="M218.58,9.07h3.05V39h-3.05V35.19h-0.1a7,7,0,0,1-1.7,1.89,10.67,10.67,0,0,1-2.29,1.35,14.11,14.11,0,0,1-2.57.83,12.11,12.11,0,0,1-2.6.29,15,15,0,0,1-5.45-.87,10.08,10.08,0,0,1-3.69-2.39,9.13,9.13,0,0,1-2.11-3.59,14.48,14.48,0,0,1-.66-4.44,13.2,13.2,0,0,1,.71-4.32,10.07,10.07,0,0,1,2.16-3.63,10.51,10.51,0,0,1,3.67-2.49,13.35,13.35,0,0,1,5.22-.93,14.46,14.46,0,0,1,5.37,1,9,9,0,0,1,4,3V9.07Zm0,19.06a9.79,9.79,0,0,0-.61-3.47,8.26,8.26,0,0,0-4.55-4.82,9.24,9.24,0,0,0-3.74-.73,10.11,10.11,0,0,0-4.12.77A7.81,7.81,0,0,0,202.7,22a8.27,8.27,0,0,0-1.63,3.09,11.55,11.55,0,0,0-.41,3.8,8.87,8.87,0,0,0,.69,3.59,7.58,7.58,0,0,0,1.91,2.64,8.36,8.36,0,0,0,2.85,1.64,10.87,10.87,0,0,0,3.56.56,9.76,9.76,0,0,0,3.82-.71,7.87,7.87,0,0,0,2.8-1.93,8.31,8.31,0,0,0,1.7-2.91A11,11,0,0,0,218.58,28.13Z" transform="translate(-0.04 -0.04)"/></svg>